<svg width="500" height="500" viewBox="0 0 23.054 23.054">
    <g id="Group_339" data-name="Group 339" transform="translate(-5972.79 -6619.5)">
      <path id="Path" d="M22.054,11.027A11.027,11.027,0,1,0,11.027,22.054,11.034,11.034,0,0,0,22.054,11.027Z" transform="translate(5973.29 6620)" fill="#fff" stroke="rgba(0,0,0,0)" stroke-miterlimit="10" stroke-width="1"/>
      <path id="Path-2" data-name="Path" d="M2,11.3A8.96,8.96,0,0,1,2,0Z" transform="translate(5975.294 6625.383)" fill="#f89059" stroke="rgba(0,0,0,0)" stroke-miterlimit="10" stroke-width="1"/>
      <path id="Path-3" data-name="Path" d="M10.666,2H0A8.1,8.1,0,0,1,10.666,2Z" transform="translate(5978.663 6622.005)" fill="#f89059" stroke="rgba(0,0,0,0)" stroke-miterlimit="10" stroke-width="1"/>
      <path id="Path-4" data-name="Path" d="M3.769,9.544,0,0H7.549Z" transform="translate(5980.547 6623.😎" fill="#f89059" stroke="rgba(0,0,0,0)" stroke-miterlimit="10" stroke-width="1"/>
      <path id="Path-5" data-name="Path" d="M4.01,0V10.025H0Z" transform="translate(5985.319 6628.07)" fill="#f89059" stroke="rgba(0,0,0,0)" stroke-miterlimit="10" stroke-width="1"/>
      <path id="Path-6" data-name="Path" d="M4.01,10.025H0V0Z" transform="translate(5979.304 6628.07)" fill="#f89059" stroke="rgba(0,0,0,0)" stroke-miterlimit="10" stroke-width="1"/>
      <path id="Path-7" data-name="Path" d="M11.308,0A8.977,8.977,0,0,1,5.654,2,8.957,8.957,0,0,1,0,0Z" transform="translate(5978.663 6638.044)" fill="#f89059" stroke="rgba(0,0,0,0)" stroke-miterlimit="10" stroke-width="1"/>
      <path id="Path-8" data-name="Path" d="M2,5.644A8.936,8.936,0,0,1,0,11.3V0A9.008,9.008,0,0,1,2,5.644Z" transform="translate(5991.334 6625.383)" fill="#f89059" stroke="rgba(0,0,0,0)" stroke-miterlimit="10" stroke-width="1"/>
      <path id="Path-9" data-name="Path" d="M2.451,7.011A11.213,11.213,0,0,1,0,14.035V0A11.3,11.3,0,0,1,2.451,7.011Z" transform="translate(5992.893 6624.01)" fill="#f89059" stroke="rgba(0,0,0,0)" stroke-miterlimit="10" stroke-width="1"/>
    </g>
  </svg>