<svg xmlns="http://www.w3.org/2000/svg" width="307.041" height="399" viewBox="0 0 307.041 399"><g transform="translate(-1329 -389)"><rect width="59" height="15" transform="translate(1453 446)" fill="#eb6314"/><g transform="translate(1424 389)" fill="#d43907" stroke="#d43907" stroke-linecap="round" stroke-width="1"><rect width="118" height="30" rx="15" stroke="none"/><rect x="0.5" y="0.5" width="117" height="29" rx="14.5" fill="none"/></g><g transform="translate(1329 456)"><path d="M0,0H2" transform="translate(151.894 74.71)" fill="rgba(0,0,0,0)" stroke="#e28e70" stroke-width="1"/><g transform="translate(0.03)" fill="#eb6314"><path d="M 153.7273101806641 327 C 132.2553100585938 327 112.5775833129883 324.8555297851563 95.24076843261719 320.6260681152344 C 86.19154357910156 318.41845703125 77.67235565185547 315.609375 69.91986083984375 312.2768859863281 C 61.93690490722656 308.8452758789063 54.57467651367188 304.7756042480469 48.03767776489258 300.1809692382813 C 41.30408477783203 295.4481201171875 35.27417755126953 290.0365600585938 30.1154956817627 284.0967102050781 C 24.78194999694824 277.9554138183594 20.23535919189453 271.0826416015625 16.60208702087402 263.6692810058594 C 12.82554054260254 255.9634704589844 9.931859016418457 247.4621124267578 8.001404762268066 238.4011993408203 C 5.989949703216553 228.9601898193359 4.970086097717285 218.6589660644531 4.970086097717285 207.78369140625 C 4.970086097717285 196.773193359375 6.002449989318848 185.198974609375 8.038540840148926 173.3825531005859 C 10.04076766967773 161.7626953125 13.00954055786133 149.9260101318359 16.86240386962891 138.2012481689453 C 20.69831275939941 126.5282897949219 25.39694976806641 115.0066070556641 30.82781410217285 103.9562911987305 C 36.30731201171875 92.80706024169922 42.51576995849609 82.17237854003906 49.28063201904297 72.34778594970703 C 56.18831253051758 62.31578826904297 63.6739501953125 53.1337890625 71.529541015625 45.05692291259766 C 79.62190246582031 36.73665237426758 88.13749694824219 29.56024169921875 96.8397216796875 23.72706031799316 C 105.8525848388672 17.6856517791748 115.143180847168 13.03610610961914 124.4534530639648 9.907515525817871 C 134.1439514160156 6.651151657104492 143.9931335449219 5.000015258789063 153.7273101806641 5.000015258789063 C 163.4605865478516 5.000015258789063 173.3022155761719 6.650924205780029 182.9789428710938 9.906878471374512 C 192.27490234375 13.03469753265381 201.5464935302734 17.68342399597168 210.5363159179688 23.72397041320801 C 219.2152252197266 29.55560684204102 227.7048645019531 36.73101425170898 235.7694091796875 45.05083465576172 C 243.5964508056641 53.12569808959961 251.0529479980469 62.30696868896484 257.9317321777344 72.33960723876953 C 264.6663208007813 82.16183471679688 270.845947265625 92.79624176025391 276.2989807128906 103.9474258422852 C 281.7015380859375 114.9953308105469 286.3752746582031 126.5172882080078 290.1903076171875 138.1932373046875 C 294.0207214355469 149.9161987304688 296.9720764160156 161.7538299560547 298.9623107910156 173.3773803710938 C 300.9855346679688 185.1931915283203 302.0113525390625 196.7691497802734 302.0113525390625 207.78369140625 C 302.0113525390625 218.6630096435547 300.9978637695313 228.9663391113281 298.9990539550781 238.407470703125 C 297.080078125 247.4714202880859 294.2031860351563 255.9741058349609 290.4483032226563 263.6793823242188 C 286.8350830078125 271.0939636230469 282.3129577636719 277.9665222167969 277.0075073242188 284.1060485839844 C 271.8748474121094 290.045654296875 265.8741760253906 295.4559631347656 259.172119140625 300.1867065429688 C 252.663818359375 304.7807312011719 245.3316345214844 308.8492736816406 237.3793182373047 312.279296875 C 229.6539916992188 315.6114196777344 221.1613159179688 318.419921875 212.1371765136719 320.6267395019531 C 194.843994140625 324.8557434082031 175.1920928955078 327 153.7273101806641 327 Z" stroke="none"/><path d="M 153.727294921875 10.00003051757813 C 76.30604553222656 10.00003051757813 9.9700927734375 118.7529144287109 9.9700927734375 207.78369140625 C 9.9700927734375 302.1845397949219 88.14593505859375 322 153.727294921875 322 C 219.0928344726563 322 297.0113525390625 302.1845397949219 297.0113525390625 207.78369140625 C 297.0113525390625 118.7529144287109 230.8937225341797 10.00003051757813 153.727294921875 10.00003051757813 M 153.727294921875 3.0517578125e-05 C 238.2238311767578 3.0517578125e-05 307.0113525390625 116.1044311523438 307.0113525390625 207.78369140625 C 307.0113525390625 299.4629516601563 238.2238311767578 332 153.727294921875 332 C 69.23072814941406 332 -0.0299072265625 299.4629516601563 -0.0299072265625 207.78369140625 C -0.0299072265625 116.1044311523438 69.23072814941406 3.0517578125e-05 153.727294921875 3.0517578125e-05 Z" stroke="none" fill="#d43907"/></g></g><path d="M225.013,259.407a15.611,15.611,0,0,0-4.356,5.518,17.683,17.683,0,0,0-1.583,7.724q0,6.983,4.449,10.807c2.962,2.531,7.839,4.592,14.616,6.138V255.067a23.224,23.224,0,0,0-7,1.06,18.286,18.286,0,0,0-6.127,3.28m43.309,71.378c-3.469-2.746-9.344-5.249-17.675-7.5v40.65a37.076,37.076,0,0,0,7.919-1.789,25,25,0,0,0,7.443-3.924,21.336,21.336,0,0,0,5.386-6.24,17.5,17.5,0,0,0,2.118-8.791c0-5.5-1.742-9.646-5.192-12.4M301.265,356.2a39.435,39.435,0,0,1-8.363,13.877,55.972,55.972,0,0,1-16.217,12.085q-10.166,5.295-26.032,6.347v18.015H238.145V388.509q-23.729-1.687-37.069-14.621-13.374-12.919-15.47-37.919h29.866c-.13,8.071,1.991,14.409,6.362,19.076a29.55,29.55,0,0,0,16.311,8.885V319.674a29.559,29.559,0,0,0-2.865-.959c-1.2-.356-2.517-.674-3.911-.954q-7.836-2.118-15.455-4.974a50.465,50.465,0,0,1-13.679-7.624A35.224,35.224,0,0,1,192.6,293.3q-3.608-7.1-3.609-17.691a41.528,41.528,0,0,1,15.043-32.943,50.294,50.294,0,0,1,15.677-8.682,70.909,70.909,0,0,1,18.431-3.707v-16.31h12.508v16.31a76.869,76.869,0,0,1,17.9,4.131,48.8,48.8,0,0,1,14.725,8.474,42.194,42.194,0,0,1,10.356,13.44,48.417,48.417,0,0,1,4.655,19.068h-30.07A22.341,22.341,0,0,0,262.926,261a15.648,15.648,0,0,0-12.273-5.938v37.492q2.52.65,5.194,1.271c1.742.428,3.626.908,5.6,1.488q15.676,4.224,24.132,10.483t12.511,13.023a34.12,34.12,0,0,1,4.767,13.563,113.622,113.622,0,0,1,.745,12.081,39.344,39.344,0,0,1-2.341,11.736" transform="translate(1237.937 311.651)" fill="#fff" stroke="#d43907" stroke-width="5"/><rect width="59" height="15" transform="translate(1453 432)" fill="#d43907"/><rect width="59" height="15" transform="translate(1453 418)" fill="#eb6314"/></g></svg>