<?xml version="1.0" standalone="no"?>
<!DOCTYPE svg PUBLIC "-//W3C//DTD SVG 20010904//EN"
 "http://www.w3.org/TR/2001/REC-SVG-20010904/DTD/svg10.dtd">
<svg version="1.0" xmlns="http://www.w3.org/2000/svg"
 width="24.000000pt" height="25.000000pt" viewBox="0 0 24.000000 25.000000"
 preserveAspectRatio="xMidYMid meet">
<metadata>
Created by potrace 1.16, written by Peter Selinger 2001-2019
</metadata>
<g transform="translate(0.000000,25.000000) scale(0.10,-0.10)"
>
<path d="M85 220 c-10 -20 -23 -30 -38 -30 -47 0 -62 -43 -27 -75 17 -15 20
-26 14 -61 -5 -37 -3 -43 16 -49 12 -4 30 -1 43 8 19 13 26 12 54 -1 49 -23
67 -11 59 41 -6 36 -3 46 14 62 35 32 20 75 -27 75 -15 0 -28 10 -38 30 -9 18
-23 30 -35 30 -12 0 -26 -12 -35 -30z m57 -30 c13 -23 24 -30 48 -30 l32 0
-26 -31 c-22 -26 -25 -37 -20 -66 l7 -36 -32 19 c-30 18 -32 18 -62 0 l-30
-18 7 37 c6 31 3 40 -22 66 l-28 29 33 0 c25 0 36 6 49 30 9 16 19 30 22 30 3
0 13 -14 22 -30z"/>
</g>
</svg>
